<svg xmlns="http://www.w3.org/2000/svg" xmlns:xlink="http://www.w3.org/1999/xlink" data-name="Livello 1" viewBox="0 0 90 112.5" x="0px" y="0px"><defs><style>.cls-1{fill:none;}.cls-2{clip-path:url(#bc);}.cls-3{clip-path:url(#bb);}.cls-4{clip-path:url(#ba);}.cls-5{clip-path:url(#az);}.cls-6{clip-path:url(#ay);}.cls-7{clip-path:url(#ax);}.cls-8{clip-path:url(#aw);}.cls-9{clip-path:url(#av);}.cls-10{clip-path:url(#au);}.cls-11{clip-path:url(#at);}.cls-12{clip-path:url(#as);}.cls-13{clip-path:url(#ar);}.cls-14{clip-path:url(#aq);}.cls-15{clip-path:url(#ap);}.cls-16{clip-path:url(#ao);}.cls-17{clip-path:url(#an);}.cls-18{clip-path:url(#am);}.cls-19{clip-path:url(#al);}.cls-20{clip-path:url(#ak);}.cls-21{clip-path:url(#aj);}.cls-22{clip-path:url(#ai);}.cls-23{clip-path:url(#ah);}.cls-24{clip-path:url(#ag);}.cls-25{clip-path:url(#af);}.cls-26{clip-path:url(#ae);}.cls-27{clip-path:url(#ad);}.cls-28{clip-path:url(#ac);}.cls-29{clip-path:url(#ab);}.cls-30{clip-path:url(#aa);}.cls-31{clip-path:url(#z);}.cls-32{clip-path:url(#y);}.cls-33{clip-path:url(#x);}.cls-34{clip-path:url(#w);}.cls-35{clip-path:url(#v);}.cls-36{clip-path:url(#u);}.cls-37{clip-path:url(#t);}.cls-38{clip-path:url(#s);}.cls-39{clip-path:url(#r);}.cls-40{clip-path:url(#q);}.cls-41{clip-path:url(#p);}.cls-42{clip-path:url(#o);}.cls-43{clip-path:url(#n);}.cls-44{clip-path:url(#m);}.cls-45{clip-path:url(#l);}.cls-46{clip-path:url(#k);}.cls-47{clip-path:url(#j);}.cls-48{clip-path:url(#i);}.cls-49{clip-path:url(#h);}.cls-50{clip-path:url(#g);}.cls-51{clip-path:url(#f);}.cls-52{clip-path:url(#e);}.cls-53{clip-path:url(#d);}.cls-54{clip-path:url(#c);}.cls-55{clip-path:url(#b);}.cls-56{clip-path:url(#a);}</style><clipPath id="bc"><path class="cls-1" d="M78.852,14.47c-12.2,0-14.114,7.811-14.383,11.286a12.89,12.89,0,0,0,0,1.616V30.82a4.579,4.579,0,1,1-9.158,0V26.645a3.434,3.434,0,0,1-6.869,0V24.517s-0.274-4.206-4.1-4.206c-4.314,0-4.171,4.206-4.171,4.206V39.466a3.874,3.874,0,0,1-3.879,3.852h-0.35a3.851,3.851,0,0,1-3.852-3.852V47.9a3.838,3.838,0,0,1-7.676,0V33.405s-0.269-6.034-6.357-6.034V14.47a2.7,2.7,0,0,1,2.694-2.694H76.158A2.7,2.7,0,0,1,78.852,14.47Z"/></clipPath><clipPath id="bb"><rect class="cls-1" x="78.37" y="10.915" width="7.995" height="7.995"/></clipPath><clipPath id="ba"><rect class="cls-1" x="78.37" y="18.911" width="7.995" height="7.995"/></clipPath><clipPath id="az"><rect class="cls-1" x="78.37" y="26.906" width="7.995" height="7.995"/></clipPath><clipPath id="ay"><rect class="cls-1" x="78.37" y="34.901" width="7.995" height="7.995"/></clipPath><clipPath id="ax"><rect class="cls-1" x="78.37" y="42.897" width="7.995" height="7.995"/></clipPath><clipPath id="aw"><rect class="cls-1" x="78.37" y="50.892" width="7.995" height="7.995"/></clipPath><clipPath id="av"><rect class="cls-1" x="70.375" y="10.915" width="7.995" height="7.995"/></clipPath><clipPath id="au"><rect class="cls-1" x="70.375" y="18.911" width="7.995" height="7.995"/></clipPath><clipPath id="at"><rect class="cls-1" x="70.375" y="26.906" width="7.995" height="7.995"/></clipPath><clipPath id="as"><rect class="cls-1" x="70.375" y="34.901" width="7.995" height="7.995"/></clipPath><clipPath id="ar"><rect class="cls-1" x="70.375" y="42.897" width="7.995" height="7.995"/></clipPath><clipPath id="aq"><rect class="cls-1" x="70.375" y="50.892" width="7.995" height="7.995"/></clipPath><clipPath id="ap"><rect class="cls-1" x="62.38" y="10.915" width="7.995" height="7.995"/></clipPath><clipPath id="ao"><rect class="cls-1" x="62.38" y="18.911" width="7.995" height="7.995"/></clipPath><clipPath id="an"><rect class="cls-1" x="62.38" y="26.906" width="7.995" height="7.995"/></clipPath><clipPath id="am"><rect class="cls-1" x="62.38" y="34.901" width="7.995" height="7.995"/></clipPath><clipPath id="al"><rect class="cls-1" x="62.38" y="42.897" width="7.995" height="7.995"/></clipPath><clipPath id="ak"><rect class="cls-1" x="62.38" y="50.892" width="7.995" height="7.995"/></clipPath><clipPath id="aj"><rect class="cls-1" x="54.384" y="10.915" width="7.995" height="7.995"/></clipPath><clipPath id="ai"><rect class="cls-1" x="54.384" y="18.911" width="7.995" height="7.995"/></clipPath><clipPath id="ah"><rect class="cls-1" x="54.384" y="26.906" width="7.995" height="7.995"/></clipPath><clipPath id="ag"><rect class="cls-1" x="54.384" y="34.901" width="7.995" height="7.995"/></clipPath><clipPath id="af"><rect class="cls-1" x="54.384" y="42.897" width="7.995" height="7.995"/></clipPath><clipPath id="ae"><rect class="cls-1" x="54.384" y="50.892" width="7.995" height="7.995"/></clipPath><clipPath id="ad"><rect class="cls-1" x="46.389" y="10.915" width="7.995" height="7.995"/></clipPath><clipPath id="ac"><rect class="cls-1" x="46.389" y="18.911" width="7.995" height="7.995"/></clipPath><clipPath id="ab"><rect class="cls-1" x="46.389" y="26.906" width="7.995" height="7.995"/></clipPath><clipPath id="aa"><rect class="cls-1" x="46.389" y="34.901" width="7.995" height="7.995"/></clipPath><clipPath id="z"><rect class="cls-1" x="46.389" y="42.897" width="7.995" height="7.995"/></clipPath><clipPath id="y"><rect class="cls-1" x="46.389" y="50.892" width="7.995" height="7.995"/></clipPath><clipPath id="x"><rect class="cls-1" x="38.394" y="10.915" width="7.995" height="7.995"/></clipPath><clipPath id="w"><rect class="cls-1" x="38.394" y="18.911" width="7.995" height="7.995"/></clipPath><clipPath id="v"><rect class="cls-1" x="38.394" y="26.906" width="7.995" height="7.995"/></clipPath><clipPath id="u"><rect class="cls-1" x="38.394" y="34.901" width="7.995" height="7.995"/></clipPath><clipPath id="t"><rect class="cls-1" x="38.394" y="42.897" width="7.995" height="7.995"/></clipPath><clipPath id="s"><rect class="cls-1" x="38.394" y="50.892" width="7.995" height="7.995"/></clipPath><clipPath id="r"><rect class="cls-1" x="30.399" y="10.915" width="7.995" height="7.995"/></clipPath><clipPath id="q"><rect class="cls-1" x="30.399" y="18.911" width="7.995" height="7.995"/></clipPath><clipPath id="p"><rect class="cls-1" x="30.399" y="26.906" width="7.995" height="7.995"/></clipPath><clipPath id="o"><rect class="cls-1" x="30.399" y="34.901" width="7.995" height="7.995"/></clipPath><clipPath id="n"><rect class="cls-1" x="30.399" y="42.897" width="7.995" height="7.995"/></clipPath><clipPath id="m"><rect class="cls-1" x="30.399" y="50.892" width="7.995" height="7.995"/></clipPath><clipPath id="l"><rect class="cls-1" x="22.404" y="10.915" width="7.995" height="7.995"/></clipPath><clipPath id="k"><rect class="cls-1" x="22.404" y="18.911" width="7.995" height="7.995"/></clipPath><clipPath id="j"><rect class="cls-1" x="22.404" y="26.906" width="7.995" height="7.995"/></clipPath><clipPath id="i"><rect class="cls-1" x="22.404" y="34.901" width="7.995" height="7.995"/></clipPath><clipPath id="h"><rect class="cls-1" x="22.404" y="42.897" width="7.995" height="7.995"/></clipPath><clipPath id="g"><rect class="cls-1" x="22.404" y="50.892" width="7.995" height="7.995"/></clipPath><clipPath id="f"><rect class="cls-1" x="14.408" y="10.915" width="7.995" height="7.995"/></clipPath><clipPath id="e"><rect class="cls-1" x="14.408" y="18.911" width="7.995" height="7.995"/></clipPath><clipPath id="d"><rect class="cls-1" x="14.408" y="26.906" width="7.995" height="7.995"/></clipPath><clipPath id="c"><rect class="cls-1" x="14.408" y="34.901" width="7.995" height="7.995"/></clipPath><clipPath id="b"><rect class="cls-1" x="14.408" y="42.897" width="7.995" height="7.995"/></clipPath><clipPath id="a"><rect class="cls-1" x="14.408" y="50.892" width="7.995" height="7.995"/></clipPath></defs><title>Senza titolo-2</title><g class="cls-2"><g class="cls-3"><circle cx="86.365" cy="18.911" r="0.6"/><circle cx="82.368" cy="18.911" r="0.6"/><circle cx="86.365" cy="14.913" r="0.6"/><circle cx="82.368" cy="14.913" r="0.6"/><circle cx="80.369" cy="16.912" r="0.6"/><circle cx="84.366" cy="16.912" r="0.6"/><circle cx="80.369" cy="12.914" r="0.6"/><circle cx="84.366" cy="12.914" r="0.6"/><circle cx="78.37" cy="18.911" r="0.6"/><circle cx="78.37" cy="14.913" r="0.6"/><circle cx="86.365" cy="10.915" r="0.6"/><circle cx="82.368" cy="10.915" r="0.6"/><circle cx="78.37" cy="10.915" r="0.6"/></g><g class="cls-4"><circle cx="86.365" cy="26.906" r="0.6"/><circle cx="82.368" cy="26.906" r="0.6"/><circle cx="86.365" cy="22.908" r="0.6"/><circle cx="82.368" cy="22.908" r="0.6"/><circle cx="80.369" cy="24.907" r="0.6"/><circle cx="84.366" cy="24.907" r="0.6"/><circle cx="80.369" cy="20.91" r="0.6"/><circle cx="84.366" cy="20.91" r="0.6"/><circle cx="78.37" cy="26.906" r="0.6"/><circle cx="78.37" cy="22.908" r="0.6"/><circle cx="86.365" cy="18.911" r="0.6"/><circle cx="82.368" cy="18.911" r="0.6"/><circle cx="78.37" cy="18.911" r="0.6"/></g><g class="cls-5"><circle cx="86.365" cy="34.901" r="0.6"/><circle cx="82.368" cy="34.901" r="0.6"/><circle cx="86.365" cy="30.904" r="0.6"/><circle cx="82.368" cy="30.904" r="0.6"/><circle cx="80.369" cy="32.902" r="0.6"/><circle cx="84.366" cy="32.902" r="0.6"/><circle cx="80.369" cy="28.905" r="0.6"/><circle cx="84.366" cy="28.905" r="0.6"/><circle cx="78.37" cy="34.901" r="0.6"/><circle cx="78.37" cy="30.904" r="0.6"/><circle cx="86.365" cy="26.906" r="0.6"/><circle cx="82.368" cy="26.906" r="0.6"/><circle cx="78.37" cy="26.906" r="0.6"/></g><g class="cls-6"><circle cx="86.365" cy="42.897" r="0.6"/><circle cx="82.368" cy="42.897" r="0.6"/><circle cx="86.365" cy="38.899" r="0.6"/><circle cx="82.368" cy="38.899" r="0.6"/><circle cx="80.369" cy="40.898" r="0.6"/><circle cx="84.366" cy="40.898" r="0.6"/><circle cx="80.369" cy="36.9" r="0.6"/><circle cx="84.366" cy="36.9" r="0.6"/><circle cx="78.37" cy="42.897" r="0.6"/><circle cx="78.37" cy="38.899" r="0.6"/><circle cx="86.365" cy="34.901" r="0.6"/><circle cx="82.368" cy="34.901" r="0.6"/><circle cx="78.37" cy="34.901" r="0.6"/></g><g class="cls-7"><circle cx="86.365" cy="50.892" r="0.6"/><circle cx="82.368" cy="50.892" r="0.6"/><circle cx="86.365" cy="46.894" r="0.6"/><circle cx="82.368" cy="46.894" r="0.6"/><circle cx="80.369" cy="48.893" r="0.6"/><circle cx="84.366" cy="48.893" r="0.6"/><circle cx="80.369" cy="44.896" r="0.6"/><circle cx="84.366" cy="44.896" r="0.6"/><circle cx="78.37" cy="50.892" r="0.6"/><circle cx="78.37" cy="46.894" r="0.6"/><circle cx="86.365" cy="42.897" r="0.6"/><circle cx="82.368" cy="42.897" r="0.6"/><circle cx="78.37" cy="42.897" r="0.6"/></g><g class="cls-8"><circle cx="86.365" cy="58.887" r="0.6"/><circle cx="82.368" cy="58.887" r="0.6"/><circle cx="86.365" cy="54.89" r="0.6"/><circle cx="82.368" cy="54.89" r="0.6"/><circle cx="80.369" cy="56.888" r="0.6"/><circle cx="84.366" cy="56.888" r="0.6"/><circle cx="80.369" cy="52.891" r="0.6"/><circle cx="84.366" cy="52.891" r="0.6"/><circle cx="78.37" cy="58.887" r="0.6"/><circle cx="78.37" cy="54.89" r="0.6"/><circle cx="86.365" cy="50.892" r="0.6"/><circle cx="82.368" cy="50.892" r="0.6"/><circle cx="78.37" cy="50.892" r="0.6"/></g><g class="cls-9"><circle cx="78.37" cy="18.911" r="0.6"/><circle cx="74.372" cy="18.911" r="0.6"/><circle cx="78.37" cy="14.913" r="0.6"/><circle cx="74.372" cy="14.913" r="0.6"/><circle cx="72.373" cy="16.912" r="0.6"/><circle cx="76.371" cy="16.912" r="0.6"/><circle cx="72.373" cy="12.914" r="0.6"/><circle cx="76.371" cy="12.914" r="0.6"/><circle cx="70.375" cy="18.911" r="0.6"/><circle cx="70.375" cy="14.913" r="0.6"/><circle cx="78.37" cy="10.915" r="0.6"/><circle cx="74.372" cy="10.915" r="0.6"/><circle cx="70.375" cy="10.915" r="0.6"/></g><g class="cls-10"><circle cx="78.37" cy="26.906" r="0.6"/><circle cx="74.372" cy="26.906" r="0.6"/><circle cx="78.37" cy="22.908" r="0.6"/><circle cx="74.372" cy="22.908" r="0.6"/><circle cx="72.373" cy="24.907" r="0.6"/><circle cx="76.371" cy="24.907" r="0.6"/><circle cx="72.373" cy="20.91" r="0.6"/><circle cx="76.371" cy="20.91" r="0.6"/><circle cx="70.375" cy="26.906" r="0.6"/><circle cx="70.375" cy="22.908" r="0.6"/><circle cx="78.37" cy="18.911" r="0.6"/><circle cx="74.372" cy="18.911" r="0.6"/><circle cx="70.375" cy="18.911" r="0.6"/></g><g class="cls-11"><circle cx="78.37" cy="34.901" r="0.6"/><circle cx="74.372" cy="34.901" r="0.6"/><circle cx="78.37" cy="30.904" r="0.6"/><circle cx="74.372" cy="30.904" r="0.6"/><circle cx="72.373" cy="32.902" r="0.6"/><circle cx="76.371" cy="32.902" r="0.6"/><circle cx="72.373" cy="28.905" r="0.6"/><circle cx="76.371" cy="28.905" r="0.6"/><circle cx="70.375" cy="34.901" r="0.6"/><circle cx="70.375" cy="30.904" r="0.6"/><circle cx="78.37" cy="26.906" r="0.6"/><circle cx="74.372" cy="26.906" r="0.6"/><circle cx="70.375" cy="26.906" r="0.6"/></g><g class="cls-12"><circle cx="78.37" cy="42.897" r="0.6"/><circle cx="74.372" cy="42.897" r="0.6"/><circle cx="78.37" cy="38.899" r="0.6"/><circle cx="74.372" cy="38.899" r="0.6"/><circle cx="72.373" cy="40.898" r="0.6"/><circle cx="76.371" cy="40.898" r="0.6"/><circle cx="72.373" cy="36.9" r="0.6"/><circle cx="76.371" cy="36.9" r="0.6"/><circle cx="70.375" cy="42.897" r="0.6"/><circle cx="70.375" cy="38.899" r="0.6"/><circle cx="78.37" cy="34.901" r="0.6"/><circle cx="74.372" cy="34.901" r="0.6"/><circle cx="70.375" cy="34.901" r="0.6"/></g><g class="cls-13"><circle cx="78.37" cy="50.892" r="0.6"/><circle cx="74.372" cy="50.892" r="0.6"/><circle cx="78.37" cy="46.894" r="0.6"/><circle cx="74.372" cy="46.894" r="0.6"/><circle cx="72.373" cy="48.893" r="0.6"/><circle cx="76.371" cy="48.893" r="0.6"/><circle cx="72.373" cy="44.896" r="0.6"/><circle cx="76.371" cy="44.896" r="0.6"/><circle cx="70.375" cy="50.892" r="0.6"/><circle cx="70.375" cy="46.894" r="0.6"/><circle cx="78.37" cy="42.897" r="0.6"/><circle cx="74.372" cy="42.897" r="0.6"/><circle cx="70.375" cy="42.897" r="0.6"/></g><g class="cls-14"><circle cx="78.37" cy="58.887" r="0.6"/><circle cx="74.372" cy="58.887" r="0.6"/><circle cx="78.37" cy="54.89" r="0.6"/><circle cx="74.372" cy="54.89" r="0.6"/><circle cx="72.373" cy="56.888" r="0.6"/><circle cx="76.371" cy="56.888" r="0.6"/><circle cx="72.373" cy="52.891" r="0.6"/><circle cx="76.371" cy="52.891" r="0.6"/><circle cx="70.375" cy="58.887" r="0.6"/><circle cx="70.375" cy="54.89" r="0.6"/><circle cx="78.37" cy="50.892" r="0.6"/><circle cx="74.372" cy="50.892" r="0.6"/><circle cx="70.375" cy="50.892" r="0.6"/></g><g class="cls-15"><circle cx="70.375" cy="18.911" r="0.6"/><circle cx="66.377" cy="18.911" r="0.6"/><circle cx="70.375" cy="14.913" r="0.6"/><circle cx="66.377" cy="14.913" r="0.6"/><circle cx="64.378" cy="16.912" r="0.6"/><circle cx="68.376" cy="16.912" r="0.6"/><circle cx="64.378" cy="12.914" r="0.6"/><circle cx="68.376" cy="12.914" r="0.6"/><circle cx="62.38" cy="18.911" r="0.6"/><circle cx="62.38" cy="14.913" r="0.6"/><circle cx="70.375" cy="10.915" r="0.6"/><circle cx="66.377" cy="10.915" r="0.6"/><circle cx="62.38" cy="10.915" r="0.6"/></g><g class="cls-16"><circle cx="70.375" cy="26.906" r="0.6"/><circle cx="66.377" cy="26.906" r="0.6"/><circle cx="70.375" cy="22.908" r="0.6"/><circle cx="66.377" cy="22.908" r="0.6"/><circle cx="64.378" cy="24.907" r="0.6"/><circle cx="68.376" cy="24.907" r="0.6"/><circle cx="64.378" cy="20.91" r="0.6"/><circle cx="68.376" cy="20.91" r="0.6"/><circle cx="62.38" cy="26.906" r="0.6"/><circle cx="62.38" cy="22.908" r="0.6"/><circle cx="70.375" cy="18.911" r="0.6"/><circle cx="66.377" cy="18.911" r="0.6"/><circle cx="62.38" cy="18.911" r="0.6"/></g><g class="cls-17"><circle cx="70.375" cy="34.901" r="0.6"/><circle cx="66.377" cy="34.901" r="0.6"/><circle cx="70.375" cy="30.904" r="0.6"/><circle cx="66.377" cy="30.904" r="0.6"/><circle cx="64.378" cy="32.902" r="0.6"/><circle cx="68.376" cy="32.902" r="0.6"/><circle cx="64.378" cy="28.905" r="0.6"/><circle cx="68.376" cy="28.905" r="0.6"/><circle cx="62.38" cy="34.901" r="0.6"/><circle cx="62.38" cy="30.904" r="0.6"/><circle cx="70.375" cy="26.906" r="0.6"/><circle cx="66.377" cy="26.906" r="0.6"/><circle cx="62.38" cy="26.906" r="0.6"/></g><g class="cls-18"><circle cx="70.375" cy="42.897" r="0.6"/><circle cx="66.377" cy="42.897" r="0.6"/><circle cx="70.375" cy="38.899" r="0.6"/><circle cx="66.377" cy="38.899" r="0.6"/><circle cx="64.378" cy="40.898" r="0.6"/><circle cx="68.376" cy="40.898" r="0.6"/><circle cx="64.378" cy="36.9" r="0.6"/><circle cx="68.376" cy="36.9" r="0.6"/><circle cx="62.38" cy="42.897" r="0.6"/><circle cx="62.38" cy="38.899" r="0.6"/><circle cx="70.375" cy="34.901" r="0.6"/><circle cx="66.377" cy="34.901" r="0.6"/><circle cx="62.38" cy="34.901" r="0.6"/></g><g class="cls-19"><circle cx="70.375" cy="50.892" r="0.6"/><circle cx="66.377" cy="50.892" r="0.6"/><circle cx="70.375" cy="46.894" r="0.6"/><circle cx="66.377" cy="46.894" r="0.6"/><circle cx="64.378" cy="48.893" r="0.6"/><circle cx="68.376" cy="48.893" r="0.6"/><circle cx="64.378" cy="44.896" r="0.6"/><circle cx="68.376" cy="44.896" r="0.6"/><circle cx="62.38" cy="50.892" r="0.6"/><circle cx="62.38" cy="46.894" r="0.6"/><circle cx="70.375" cy="42.897" r="0.6"/><circle cx="66.377" cy="42.897" r="0.6"/><circle cx="62.38" cy="42.897" r="0.6"/></g><g class="cls-20"><circle cx="70.375" cy="58.887" r="0.6"/><circle cx="66.377" cy="58.887" r="0.6"/><circle cx="70.375" cy="54.89" r="0.6"/><circle cx="66.377" cy="54.89" r="0.6"/><circle cx="64.378" cy="56.888" r="0.6"/><circle cx="68.376" cy="56.888" r="0.6"/><circle cx="64.378" cy="52.891" r="0.6"/><circle cx="68.376" cy="52.891" r="0.6"/><circle cx="62.38" cy="58.887" r="0.6"/><circle cx="62.38" cy="54.89" r="0.6"/><circle cx="70.375" cy="50.892" r="0.6"/><circle cx="66.377" cy="50.892" r="0.6"/><circle cx="62.38" cy="50.892" r="0.6"/></g><g class="cls-21"><circle cx="62.38" cy="18.911" r="0.6"/><circle cx="58.382" cy="18.911" r="0.6"/><circle cx="62.38" cy="14.913" r="0.6"/><circle cx="58.382" cy="14.913" r="0.6"/><circle cx="56.383" cy="16.912" r="0.6"/><circle cx="60.381" cy="16.912" r="0.6"/><circle cx="56.383" cy="12.914" r="0.6"/><circle cx="60.381" cy="12.914" r="0.6"/><circle cx="54.384" cy="18.911" r="0.6"/><circle cx="54.384" cy="14.913" r="0.6"/><circle cx="62.38" cy="10.915" r="0.6"/><circle cx="58.382" cy="10.915" r="0.6"/><circle cx="54.384" cy="10.915" r="0.6"/></g><g class="cls-22"><circle cx="62.38" cy="26.906" r="0.6"/><circle cx="58.382" cy="26.906" r="0.6"/><circle cx="62.38" cy="22.908" r="0.6"/><circle cx="58.382" cy="22.908" r="0.6"/><circle cx="56.383" cy="24.907" r="0.6"/><circle cx="60.381" cy="24.907" r="0.6"/><circle cx="56.383" cy="20.91" r="0.6"/><circle cx="60.381" cy="20.91" r="0.6"/><circle cx="54.384" cy="26.906" r="0.6"/><circle cx="54.384" cy="22.908" r="0.6"/><circle cx="62.38" cy="18.911" r="0.6"/><circle cx="58.382" cy="18.911" r="0.6"/><circle cx="54.384" cy="18.911" r="0.6"/></g><g class="cls-23"><circle cx="62.38" cy="34.901" r="0.6"/><circle cx="58.382" cy="34.901" r="0.6"/><circle cx="62.38" cy="30.904" r="0.6"/><circle cx="58.382" cy="30.904" r="0.6"/><circle cx="56.383" cy="32.902" r="0.6"/><circle cx="60.381" cy="32.902" r="0.6"/><circle cx="56.383" cy="28.905" r="0.6"/><circle cx="60.381" cy="28.905" r="0.6"/><circle cx="54.384" cy="34.901" r="0.6"/><circle cx="54.384" cy="30.904" r="0.6"/><circle cx="62.38" cy="26.906" r="0.6"/><circle cx="58.382" cy="26.906" r="0.6"/><circle cx="54.384" cy="26.906" r="0.6"/></g><g class="cls-24"><circle cx="62.38" cy="42.897" r="0.6"/><circle cx="58.382" cy="42.897" r="0.6"/><circle cx="62.38" cy="38.899" r="0.6"/><circle cx="58.382" cy="38.899" r="0.6"/><circle cx="56.383" cy="40.898" r="0.6"/><circle cx="60.381" cy="40.898" r="0.6"/><circle cx="56.383" cy="36.9" r="0.6"/><circle cx="60.381" cy="36.9" r="0.6"/><circle cx="54.384" cy="42.897" r="0.6"/><circle cx="54.384" cy="38.899" r="0.6"/><circle cx="62.38" cy="34.901" r="0.6"/><circle cx="58.382" cy="34.901" r="0.6"/><circle cx="54.384" cy="34.901" r="0.6"/></g><g class="cls-25"><circle cx="62.38" cy="50.892" r="0.6"/><circle cx="58.382" cy="50.892" r="0.6"/><circle cx="62.38" cy="46.894" r="0.6"/><circle cx="58.382" cy="46.894" r="0.6"/><circle cx="56.383" cy="48.893" r="0.6"/><circle cx="60.381" cy="48.893" r="0.6"/><circle cx="56.383" cy="44.896" r="0.6"/><circle cx="60.381" cy="44.896" r="0.6"/><circle cx="54.384" cy="50.892" r="0.6"/><circle cx="54.384" cy="46.894" r="0.6"/><circle cx="62.38" cy="42.897" r="0.6"/><circle cx="58.382" cy="42.897" r="0.6"/><circle cx="54.384" cy="42.897" r="0.6"/></g><g class="cls-26"><circle cx="62.38" cy="58.887" r="0.6"/><circle cx="58.382" cy="58.887" r="0.6"/><circle cx="62.38" cy="54.89" r="0.6"/><circle cx="58.382" cy="54.89" r="0.6"/><circle cx="56.383" cy="56.888" r="0.6"/><circle cx="60.381" cy="56.888" r="0.6"/><circle cx="56.383" cy="52.891" r="0.6"/><circle cx="60.381" cy="52.891" r="0.6"/><circle cx="54.384" cy="58.887" r="0.6"/><circle cx="54.384" cy="54.89" r="0.6"/><circle cx="62.38" cy="50.892" r="0.6"/><circle cx="58.382" cy="50.892" r="0.6"/><circle cx="54.384" cy="50.892" r="0.6"/></g><g class="cls-27"><circle cx="54.384" cy="18.911" r="0.6"/><circle cx="50.387" cy="18.911" r="0.6"/><circle cx="54.384" cy="14.913" r="0.6"/><circle cx="50.387" cy="14.913" r="0.6"/><circle cx="48.388" cy="16.912" r="0.6"/><circle cx="52.386" cy="16.912" r="0.6"/><circle cx="48.388" cy="12.914" r="0.6"/><circle cx="52.386" cy="12.914" r="0.6"/><circle cx="46.389" cy="18.911" r="0.6"/><circle cx="46.389" cy="14.913" r="0.6"/><circle cx="54.384" cy="10.915" r="0.6"/><circle cx="50.387" cy="10.915" r="0.6"/><circle cx="46.389" cy="10.915" r="0.6"/></g><g class="cls-28"><circle cx="54.384" cy="26.906" r="0.6"/><circle cx="50.387" cy="26.906" r="0.6"/><circle cx="54.384" cy="22.908" r="0.6"/><circle cx="50.387" cy="22.908" r="0.6"/><circle cx="48.388" cy="24.907" r="0.6"/><circle cx="52.386" cy="24.907" r="0.6"/><circle cx="48.388" cy="20.91" r="0.6"/><circle cx="52.386" cy="20.91" r="0.6"/><circle cx="46.389" cy="26.906" r="0.6"/><circle cx="46.389" cy="22.908" r="0.6"/><circle cx="54.384" cy="18.911" r="0.6"/><circle cx="50.387" cy="18.911" r="0.6"/><circle cx="46.389" cy="18.911" r="0.6"/></g><g class="cls-29"><circle cx="54.384" cy="34.901" r="0.6"/><circle cx="50.387" cy="34.901" r="0.6"/><circle cx="54.384" cy="30.904" r="0.6"/><circle cx="50.387" cy="30.904" r="0.6"/><circle cx="48.388" cy="32.902" r="0.6"/><circle cx="52.386" cy="32.902" r="0.6"/><circle cx="48.388" cy="28.905" r="0.6"/><circle cx="52.386" cy="28.905" r="0.6"/><circle cx="46.389" cy="34.901" r="0.6"/><circle cx="46.389" cy="30.904" r="0.6"/><circle cx="54.384" cy="26.906" r="0.6"/><circle cx="50.387" cy="26.906" r="0.6"/><circle cx="46.389" cy="26.906" r="0.6"/></g><g class="cls-30"><circle cx="54.384" cy="42.897" r="0.6"/><circle cx="50.387" cy="42.897" r="0.6"/><circle cx="54.384" cy="38.899" r="0.6"/><circle cx="50.387" cy="38.899" r="0.6"/><circle cx="48.388" cy="40.898" r="0.6"/><circle cx="52.386" cy="40.898" r="0.6"/><circle cx="48.388" cy="36.9" r="0.6"/><circle cx="52.386" cy="36.9" r="0.6"/><circle cx="46.389" cy="42.897" r="0.6"/><circle cx="46.389" cy="38.899" r="0.6"/><circle cx="54.384" cy="34.901" r="0.6"/><circle cx="50.387" cy="34.901" r="0.6"/><circle cx="46.389" cy="34.901" r="0.6"/></g><g class="cls-31"><circle cx="54.384" cy="50.892" r="0.6"/><circle cx="50.387" cy="50.892" r="0.6"/><circle cx="54.384" cy="46.894" r="0.6"/><circle cx="50.387" cy="46.894" r="0.6"/><circle cx="48.388" cy="48.893" r="0.6"/><circle cx="52.386" cy="48.893" r="0.6"/><circle cx="48.388" cy="44.896" r="0.6"/><circle cx="52.386" cy="44.896" r="0.6"/><circle cx="46.389" cy="50.892" r="0.6"/><circle cx="46.389" cy="46.894" r="0.6"/><circle cx="54.384" cy="42.897" r="0.6"/><circle cx="50.387" cy="42.897" r="0.6"/><circle cx="46.389" cy="42.897" r="0.6"/></g><g class="cls-32"><circle cx="54.384" cy="58.887" r="0.6"/><circle cx="50.387" cy="58.887" r="0.6"/><circle cx="54.384" cy="54.89" r="0.6"/><circle cx="50.387" cy="54.89" r="0.6"/><circle cx="48.388" cy="56.888" r="0.6"/><circle cx="52.386" cy="56.888" r="0.6"/><circle cx="48.388" cy="52.891" r="0.6"/><circle cx="52.386" cy="52.891" r="0.6"/><circle cx="46.389" cy="58.887" r="0.6"/><circle cx="46.389" cy="54.89" r="0.6"/><circle cx="54.384" cy="50.892" r="0.6"/><circle cx="50.387" cy="50.892" r="0.6"/><circle cx="46.389" cy="50.892" r="0.6"/></g><g class="cls-33"><circle cx="46.389" cy="18.911" r="0.6"/><circle cx="42.392" cy="18.911" r="0.6"/><circle cx="46.389" cy="14.913" r="0.6"/><circle cx="42.392" cy="14.913" r="0.6"/><circle cx="40.393" cy="16.912" r="0.6"/><circle cx="44.39" cy="16.912" r="0.6"/><circle cx="40.393" cy="12.914" r="0.6"/><circle cx="44.39" cy="12.914" r="0.6"/><circle cx="38.394" cy="18.911" r="0.6"/><circle cx="38.394" cy="14.913" r="0.6"/><circle cx="46.389" cy="10.915" r="0.6"/><circle cx="42.392" cy="10.915" r="0.6"/><circle cx="38.394" cy="10.915" r="0.6"/></g><g class="cls-34"><circle cx="46.389" cy="26.906" r="0.6"/><circle cx="42.392" cy="26.906" r="0.6"/><circle cx="46.389" cy="22.908" r="0.6"/><circle cx="42.392" cy="22.908" r="0.6"/><circle cx="40.393" cy="24.907" r="0.6"/><circle cx="44.39" cy="24.907" r="0.6"/><circle cx="40.393" cy="20.91" r="0.6"/><circle cx="44.39" cy="20.91" r="0.6"/><circle cx="38.394" cy="26.906" r="0.6"/><circle cx="38.394" cy="22.908" r="0.6"/><circle cx="46.389" cy="18.911" r="0.6"/><circle cx="42.392" cy="18.911" r="0.6"/><circle cx="38.394" cy="18.911" r="0.6"/></g><g class="cls-35"><circle cx="46.389" cy="34.901" r="0.6"/><circle cx="42.392" cy="34.901" r="0.6"/><circle cx="46.389" cy="30.904" r="0.6"/><circle cx="42.392" cy="30.904" r="0.6"/><circle cx="40.393" cy="32.902" r="0.6"/><circle cx="44.39" cy="32.902" r="0.6"/><circle cx="40.393" cy="28.905" r="0.6"/><circle cx="44.39" cy="28.905" r="0.6"/><circle cx="38.394" cy="34.901" r="0.6"/><circle cx="38.394" cy="30.904" r="0.6"/><circle cx="46.389" cy="26.906" r="0.6"/><circle cx="42.392" cy="26.906" r="0.6"/><circle cx="38.394" cy="26.906" r="0.6"/></g><g class="cls-36"><circle cx="46.389" cy="42.897" r="0.6"/><circle cx="42.392" cy="42.897" r="0.6"/><circle cx="46.389" cy="38.899" r="0.6"/><circle cx="42.392" cy="38.899" r="0.6"/><circle cx="40.393" cy="40.898" r="0.6"/><circle cx="44.39" cy="40.898" r="0.6"/><circle cx="40.393" cy="36.9" r="0.6"/><circle cx="44.39" cy="36.9" r="0.6"/><circle cx="38.394" cy="42.897" r="0.6"/><circle cx="38.394" cy="38.899" r="0.6"/><circle cx="46.389" cy="34.901" r="0.6"/><circle cx="42.392" cy="34.901" r="0.6"/><circle cx="38.394" cy="34.901" r="0.6"/></g><g class="cls-37"><circle cx="46.389" cy="50.892" r="0.6"/><circle cx="42.392" cy="50.892" r="0.6"/><circle cx="46.389" cy="46.894" r="0.6"/><circle cx="42.392" cy="46.894" r="0.6"/><circle cx="40.393" cy="48.893" r="0.6"/><circle cx="44.39" cy="48.893" r="0.6"/><circle cx="40.393" cy="44.896" r="0.6"/><circle cx="44.39" cy="44.896" r="0.6"/><circle cx="38.394" cy="50.892" r="0.6"/><circle cx="38.394" cy="46.894" r="0.6"/><circle cx="46.389" cy="42.897" r="0.6"/><circle cx="42.392" cy="42.897" r="0.6"/><circle cx="38.394" cy="42.897" r="0.6"/></g><g class="cls-38"><circle cx="46.389" cy="58.887" r="0.6"/><circle cx="42.392" cy="58.887" r="0.6"/><circle cx="46.389" cy="54.89" r="0.6"/><circle cx="42.392" cy="54.89" r="0.6"/><circle cx="40.393" cy="56.888" r="0.6"/><circle cx="44.39" cy="56.888" r="0.6"/><circle cx="40.393" cy="52.891" r="0.6"/><circle cx="44.39" cy="52.891" r="0.6"/><circle cx="38.394" cy="58.887" r="0.6"/><circle cx="38.394" cy="54.89" r="0.6"/><circle cx="46.389" cy="50.892" r="0.6"/><circle cx="42.392" cy="50.892" r="0.6"/><circle cx="38.394" cy="50.892" r="0.6"/></g><g class="cls-39"><circle cx="38.394" cy="18.911" r="0.6"/><circle cx="34.396" cy="18.911" r="0.6"/><circle cx="38.394" cy="14.913" r="0.6"/><circle cx="34.396" cy="14.913" r="0.6"/><circle cx="32.397" cy="16.912" r="0.6"/><circle cx="36.395" cy="16.912" r="0.6"/><circle cx="32.397" cy="12.914" r="0.6"/><circle cx="36.395" cy="12.914" r="0.6"/><circle cx="30.399" cy="18.911" r="0.6"/><circle cx="30.399" cy="14.913" r="0.6"/><circle cx="38.394" cy="10.915" r="0.6"/><circle cx="34.396" cy="10.915" r="0.6"/><circle cx="30.399" cy="10.915" r="0.6"/></g><g class="cls-40"><circle cx="38.394" cy="26.906" r="0.6"/><circle cx="34.396" cy="26.906" r="0.6"/><circle cx="38.394" cy="22.908" r="0.6"/><circle cx="34.396" cy="22.908" r="0.6"/><circle cx="32.397" cy="24.907" r="0.6"/><circle cx="36.395" cy="24.907" r="0.6"/><circle cx="32.397" cy="20.91" r="0.6"/><circle cx="36.395" cy="20.91" r="0.6"/><circle cx="30.399" cy="26.906" r="0.6"/><circle cx="30.399" cy="22.908" r="0.6"/><circle cx="38.394" cy="18.911" r="0.6"/><circle cx="34.396" cy="18.911" r="0.6"/><circle cx="30.399" cy="18.911" r="0.6"/></g><g class="cls-41"><circle cx="38.394" cy="34.901" r="0.6"/><circle cx="34.396" cy="34.901" r="0.6"/><circle cx="38.394" cy="30.904" r="0.6"/><circle cx="34.396" cy="30.904" r="0.6"/><circle cx="32.397" cy="32.902" r="0.6"/><circle cx="36.395" cy="32.902" r="0.6"/><circle cx="32.397" cy="28.905" r="0.6"/><circle cx="36.395" cy="28.905" r="0.6"/><circle cx="30.399" cy="34.901" r="0.6"/><circle cx="30.399" cy="30.904" r="0.6"/><circle cx="38.394" cy="26.906" r="0.6"/><circle cx="34.396" cy="26.906" r="0.6"/><circle cx="30.399" cy="26.906" r="0.6"/></g><g class="cls-42"><circle cx="38.394" cy="42.897" r="0.6"/><circle cx="34.396" cy="42.897" r="0.6"/><circle cx="38.394" cy="38.899" r="0.6"/><circle cx="34.396" cy="38.899" r="0.6"/><circle cx="32.397" cy="40.898" r="0.6"/><circle cx="36.395" cy="40.898" r="0.6"/><circle cx="32.397" cy="36.9" r="0.6"/><circle cx="36.395" cy="36.9" r="0.6"/><circle cx="30.399" cy="42.897" r="0.6"/><circle cx="30.399" cy="38.899" r="0.6"/><circle cx="38.394" cy="34.901" r="0.6"/><circle cx="34.396" cy="34.901" r="0.6"/><circle cx="30.399" cy="34.901" r="0.6"/></g><g class="cls-43"><circle cx="38.394" cy="50.892" r="0.6"/><circle cx="34.396" cy="50.892" r="0.6"/><circle cx="38.394" cy="46.894" r="0.6"/><circle cx="34.396" cy="46.894" r="0.6"/><circle cx="32.397" cy="48.893" r="0.6"/><circle cx="36.395" cy="48.893" r="0.6"/><circle cx="32.397" cy="44.896" r="0.6"/><circle cx="36.395" cy="44.896" r="0.6"/><circle cx="30.399" cy="50.892" r="0.6"/><circle cx="30.399" cy="46.894" r="0.6"/><circle cx="38.394" cy="42.897" r="0.6"/><circle cx="34.396" cy="42.897" r="0.6"/><circle cx="30.399" cy="42.897" r="0.6"/></g><g class="cls-44"><circle cx="38.394" cy="58.887" r="0.6"/><circle cx="34.396" cy="58.887" r="0.6"/><circle cx="38.394" cy="54.89" r="0.6"/><circle cx="34.396" cy="54.89" r="0.6"/><circle cx="32.397" cy="56.888" r="0.6"/><circle cx="36.395" cy="56.888" r="0.6"/><circle cx="32.397" cy="52.891" r="0.6"/><circle cx="36.395" cy="52.891" r="0.6"/><circle cx="30.399" cy="58.887" r="0.6"/><circle cx="30.399" cy="54.89" r="0.6"/><circle cx="38.394" cy="50.892" r="0.6"/><circle cx="34.396" cy="50.892" r="0.6"/><circle cx="30.399" cy="50.892" r="0.6"/></g><g class="cls-45"><circle cx="30.399" cy="18.911" r="0.6"/><circle cx="26.401" cy="18.911" r="0.6"/><circle cx="30.399" cy="14.913" r="0.6"/><circle cx="26.401" cy="14.913" r="0.6"/><circle cx="24.402" cy="16.912" r="0.6"/><circle cx="28.4" cy="16.912" r="0.6"/><circle cx="24.402" cy="12.914" r="0.6"/><circle cx="28.4" cy="12.914" r="0.6"/><circle cx="22.404" cy="18.911" r="0.6"/><circle cx="22.404" cy="14.913" r="0.6"/><circle cx="30.399" cy="10.915" r="0.6"/><circle cx="26.401" cy="10.915" r="0.6"/><circle cx="22.404" cy="10.915" r="0.6"/></g><g class="cls-46"><circle cx="30.399" cy="26.906" r="0.6"/><circle cx="26.401" cy="26.906" r="0.6"/><circle cx="30.399" cy="22.908" r="0.6"/><circle cx="26.401" cy="22.908" r="0.6"/><circle cx="24.402" cy="24.907" r="0.6"/><circle cx="28.4" cy="24.907" r="0.6"/><circle cx="24.402" cy="20.91" r="0.6"/><circle cx="28.4" cy="20.91" r="0.6"/><circle cx="22.404" cy="26.906" r="0.6"/><circle cx="22.404" cy="22.908" r="0.6"/><circle cx="30.399" cy="18.911" r="0.6"/><circle cx="26.401" cy="18.911" r="0.6"/><circle cx="22.404" cy="18.911" r="0.6"/></g><g class="cls-47"><circle cx="30.399" cy="34.901" r="0.6"/><circle cx="26.401" cy="34.901" r="0.6"/><circle cx="30.399" cy="30.904" r="0.6"/><circle cx="26.401" cy="30.904" r="0.6"/><circle cx="24.402" cy="32.902" r="0.6"/><circle cx="28.4" cy="32.902" r="0.6"/><circle cx="24.402" cy="28.905" r="0.6"/><circle cx="28.4" cy="28.905" r="0.6"/><circle cx="22.404" cy="34.901" r="0.6"/><circle cx="22.404" cy="30.904" r="0.6"/><circle cx="30.399" cy="26.906" r="0.6"/><circle cx="26.401" cy="26.906" r="0.6"/><circle cx="22.404" cy="26.906" r="0.6"/></g><g class="cls-48"><circle cx="30.399" cy="42.897" r="0.6"/><circle cx="26.401" cy="42.897" r="0.6"/><circle cx="30.399" cy="38.899" r="0.6"/><circle cx="26.401" cy="38.899" r="0.6"/><circle cx="24.402" cy="40.898" r="0.6"/><circle cx="28.4" cy="40.898" r="0.6"/><circle cx="24.402" cy="36.9" r="0.6"/><circle cx="28.4" cy="36.9" r="0.6"/><circle cx="22.404" cy="42.897" r="0.6"/><circle cx="22.404" cy="38.899" r="0.6"/><circle cx="30.399" cy="34.901" r="0.6"/><circle cx="26.401" cy="34.901" r="0.6"/><circle cx="22.404" cy="34.901" r="0.6"/></g><g class="cls-49"><circle cx="30.399" cy="50.892" r="0.6"/><circle cx="26.401" cy="50.892" r="0.6"/><circle cx="30.399" cy="46.894" r="0.6"/><circle cx="26.401" cy="46.894" r="0.6"/><circle cx="24.402" cy="48.893" r="0.6"/><circle cx="28.4" cy="48.893" r="0.6"/><circle cx="24.402" cy="44.896" r="0.6"/><circle cx="28.4" cy="44.896" r="0.6"/><circle cx="22.404" cy="50.892" r="0.6"/><circle cx="22.404" cy="46.894" r="0.6"/><circle cx="30.399" cy="42.897" r="0.6"/><circle cx="26.401" cy="42.897" r="0.6"/><circle cx="22.404" cy="42.897" r="0.6"/></g><g class="cls-50"><circle cx="30.399" cy="58.887" r="0.6"/><circle cx="26.401" cy="58.887" r="0.6"/><circle cx="30.399" cy="54.89" r="0.6"/><circle cx="26.401" cy="54.89" r="0.6"/><circle cx="24.402" cy="56.888" r="0.6"/><circle cx="28.4" cy="56.888" r="0.6"/><circle cx="24.402" cy="52.891" r="0.6"/><circle cx="28.4" cy="52.891" r="0.6"/><circle cx="22.404" cy="58.887" r="0.6"/><circle cx="22.404" cy="54.89" r="0.6"/><circle cx="30.399" cy="50.892" r="0.6"/><circle cx="26.401" cy="50.892" r="0.6"/><circle cx="22.404" cy="50.892" r="0.6"/></g><g class="cls-51"><circle cx="22.404" cy="18.911" r="0.6"/><circle cx="18.406" cy="18.911" r="0.6"/><circle cx="22.404" cy="14.913" r="0.6"/><circle cx="18.406" cy="14.913" r="0.6"/><circle cx="16.407" cy="16.912" r="0.6"/><circle cx="20.405" cy="16.912" r="0.6"/><circle cx="16.407" cy="12.914" r="0.6"/><circle cx="20.405" cy="12.914" r="0.6"/><circle cx="14.408" cy="18.911" r="0.6"/><circle cx="14.408" cy="14.913" r="0.6"/><circle cx="22.404" cy="10.915" r="0.6"/><circle cx="18.406" cy="10.915" r="0.6"/><circle cx="14.408" cy="10.915" r="0.6"/></g><g class="cls-52"><circle cx="22.404" cy="26.906" r="0.6"/><circle cx="18.406" cy="26.906" r="0.6"/><circle cx="22.404" cy="22.908" r="0.6"/><circle cx="18.406" cy="22.908" r="0.6"/><circle cx="16.407" cy="24.907" r="0.6"/><circle cx="20.405" cy="24.907" r="0.6"/><circle cx="16.407" cy="20.91" r="0.6"/><circle cx="20.405" cy="20.91" r="0.6"/><circle cx="14.408" cy="26.906" r="0.6"/><circle cx="14.408" cy="22.908" r="0.6"/><circle cx="22.404" cy="18.911" r="0.6"/><circle cx="18.406" cy="18.911" r="0.6"/><circle cx="14.408" cy="18.911" r="0.6"/></g><g class="cls-53"><circle cx="22.404" cy="34.901" r="0.6"/><circle cx="18.406" cy="34.901" r="0.6"/><circle cx="22.404" cy="30.904" r="0.6"/><circle cx="18.406" cy="30.904" r="0.6"/><circle cx="16.407" cy="32.902" r="0.6"/><circle cx="20.405" cy="32.902" r="0.6"/><circle cx="16.407" cy="28.905" r="0.6"/><circle cx="20.405" cy="28.905" r="0.6"/><circle cx="14.408" cy="34.901" r="0.6"/><circle cx="14.408" cy="30.904" r="0.6"/><circle cx="22.404" cy="26.906" r="0.6"/><circle cx="18.406" cy="26.906" r="0.6"/><circle cx="14.408" cy="26.906" r="0.6"/></g><g class="cls-54"><circle cx="22.404" cy="42.897" r="0.6"/><circle cx="18.406" cy="42.897" r="0.6"/><circle cx="22.404" cy="38.899" r="0.6"/><circle cx="18.406" cy="38.899" r="0.6"/><circle cx="16.407" cy="40.898" r="0.6"/><circle cx="20.405" cy="40.898" r="0.6"/><circle cx="16.407" cy="36.9" r="0.6"/><circle cx="20.405" cy="36.9" r="0.6"/><circle cx="14.408" cy="42.897" r="0.6"/><circle cx="14.408" cy="38.899" r="0.6"/><circle cx="22.404" cy="34.901" r="0.6"/><circle cx="18.406" cy="34.901" r="0.6"/><circle cx="14.408" cy="34.901" r="0.6"/></g><g class="cls-55"><circle cx="22.404" cy="50.892" r="0.6"/><circle cx="18.406" cy="50.892" r="0.6"/><circle cx="22.404" cy="46.894" r="0.6"/><circle cx="18.406" cy="46.894" r="0.6"/><circle cx="16.407" cy="48.893" r="0.6"/><circle cx="20.405" cy="48.893" r="0.6"/><circle cx="16.407" cy="44.896" r="0.6"/><circle cx="20.405" cy="44.896" r="0.6"/><circle cx="14.408" cy="50.892" r="0.6"/><circle cx="14.408" cy="46.894" r="0.6"/><circle cx="22.404" cy="42.897" r="0.6"/><circle cx="18.406" cy="42.897" r="0.6"/><circle cx="14.408" cy="42.897" r="0.6"/></g><g class="cls-56"><circle cx="22.404" cy="58.887" r="0.6"/><circle cx="18.406" cy="58.887" r="0.6"/><circle cx="22.404" cy="54.89" r="0.6"/><circle cx="18.406" cy="54.89" r="0.6"/><circle cx="16.407" cy="56.888" r="0.6"/><circle cx="20.405" cy="56.888" r="0.6"/><circle cx="16.407" cy="52.891" r="0.6"/><circle cx="20.405" cy="52.891" r="0.6"/><circle cx="14.408" cy="58.887" r="0.6"/><circle cx="14.408" cy="54.89" r="0.6"/><circle cx="22.404" cy="50.892" r="0.6"/><circle cx="18.406" cy="50.892" r="0.6"/><circle cx="14.408" cy="50.892" r="0.6"/></g></g><path d="M28.241,52.721A4.83,4.83,0,0,1,23.416,47.9V33.406a5.154,5.154,0,0,0-5.357-5.034,1,1,0,0,1-1-1V14.47a3.7,3.7,0,0,1,3.694-3.693H76.159a3.7,3.7,0,0,1,3.693,3.693,1,1,0,0,1-1,1c-10.948,0-13.087,6.493-13.387,10.363a11.977,11.977,0,0,0,0,1.458l0,3.529a5.579,5.579,0,1,1-11.157,0V30.342a4.44,4.44,0,0,1-6.869-3.7V24.517c-0.022-.266-0.319-3.207-3.1-3.207a3.088,3.088,0,0,0-2.3.807,3.668,3.668,0,0,0-.87,2.371V39.466a4.871,4.871,0,0,1-4.879,4.852h-0.35a4.829,4.829,0,0,1-2.853-.929V47.9A4.844,4.844,0,0,1,28.241,52.721Zm-9.182-26.3a7.134,7.134,0,0,1,6.356,6.937V47.9a2.838,2.838,0,0,0,5.676,0V39.466a1,1,0,0,1,2,0,2.855,2.855,0,0,0,2.853,2.852h0.35a2.868,2.868,0,0,0,2.879-2.852V24.517a5.676,5.676,0,0,1,1.423-3.78,4.988,4.988,0,0,1,3.747-1.426c3.767,0,4.98,3.363,5.1,5.142l0,2.193a2.435,2.435,0,0,0,4.869,0,1,1,0,0,1,2,0V30.82a3.579,3.579,0,1,0,7.157,0V27.374h0a13.086,13.086,0,0,1,0-1.674c0.276-3.566,2.215-11.648,14.075-12.2a1.69,1.69,0,0,0-1.387-.723H20.753a1.7,1.7,0,0,0-1.694,1.693V26.424Z"/><path d="M76.159,60.021H20.753a3.7,3.7,0,0,1-3.694-3.694V27.372a1,1,0,0,1,1-1,7.13,7.13,0,0,1,7.356,6.989V47.9a2.838,2.838,0,0,0,5.676,0V39.466a1,1,0,0,1,2,0,2.855,2.855,0,0,0,2.853,2.852h0.35a2.868,2.868,0,0,0,2.879-2.852V24.517a5.676,5.676,0,0,1,1.423-3.78,4.988,4.988,0,0,1,3.747-1.426c3.767,0,4.98,3.363,5.1,5.142l0,2.193a2.435,2.435,0,0,0,4.869,0,1,1,0,0,1,2,0V30.82a3.579,3.579,0,1,0,7.157,0V27.374h0a13.086,13.086,0,0,1,0-1.674c0.286-3.693,2.354-12.23,15.382-12.23a1,1,0,0,1,1,1V56.327A3.7,3.7,0,0,1,76.159,60.021ZM19.059,28.44V56.327a1.7,1.7,0,0,0,1.694,1.694H76.159a1.7,1.7,0,0,0,1.693-1.694V15.489c-10.079.385-12.1,6.6-12.387,10.344a11.977,11.977,0,0,0,0,1.458l0,3.529a5.579,5.579,0,1,1-11.157,0V30.342a4.44,4.44,0,0,1-6.869-3.7V24.517c-0.022-.266-0.319-3.207-3.1-3.207a3.088,3.088,0,0,0-2.3.807,3.668,3.668,0,0,0-.87,2.371V39.466a4.871,4.871,0,0,1-4.879,4.852h-0.35a4.829,4.829,0,0,1-2.853-.929V47.9a4.838,4.838,0,0,1-9.676,0V33.406C23.392,32.968,23.063,29.008,19.059,28.44Z"/><rect x="25.777" y="59.032" width="45.348" height="4.152" rx="0.697" ry="0.697"/><path d="M70.428,64.184H26.474a1.7,1.7,0,0,1-1.7-1.7V59.729a1.7,1.7,0,0,1,1.7-1.7H70.428a1.7,1.7,0,0,1,1.7,1.7v2.759A1.7,1.7,0,0,1,70.428,64.184Zm-43.65-2H70.125V60.032H26.778v2.152Z"/><path d="M32.446,85.257a0.986,0.986,0,0,1-.2-0.021,1,1,0,0,1-.778-1.181L35.8,62.982a1,1,0,0,1,1.959.4L33.424,84.459A1,1,0,0,1,32.446,85.257Z"/><path d="M48.452,10.447a1,1,0,0,1-1-1v-3.7a1,1,0,1,1,2,0v3.7A1,1,0,0,1,48.452,10.447Z"/><path d="M64.456,85.257a1,1,0,0,1-.979-0.8L59.142,63.385a1,1,0,0,1,1.959-.4l4.336,21.074a1,1,0,0,1-.778,1.181A0.986,0.986,0,0,1,64.456,85.257Z"/><path d="M64.467,28.372a1,1,0,0,1-1-.917,13.631,13.631,0,0,1,0-1.754,0.975,0.975,0,0,1,1.025-.944,1,1,0,0,1,.973,1v1.616a1,1,0,0,1-.959,1H64.467Z"/><rect x="37.772" y="9.335" width="21.359" height="2.28" rx="1.068" ry="1.068"/><path d="M58.063,12.615H38.839a2.07,2.07,0,0,1-2.067-2.068V10.4a2.07,2.07,0,0,1,2.067-2.068H58.063A2.07,2.07,0,0,1,60.131,10.4v0.145A2.07,2.07,0,0,1,58.063,12.615Zm-19.224-2.28-0.067.212,19.291,0.068a0.07,0.07,0,0,0,.068-0.068V10.4Z"/><text x="0" y="105" fill="#000000" font-size="5px" font-weight="bold" font-family="'Helvetica Neue', Helvetica, Arial-Unicode, Arial, Sans-serif">Created by Francesca Pelliccioni</text><text x="0" y="110" fill="#000000" font-size="5px" font-weight="bold" font-family="'Helvetica Neue', Helvetica, Arial-Unicode, Arial, Sans-serif">from the Noun Project</text></svg>